PathFileType	4	(X/Y/Z)	/Users/itak/Documents/Research/Walk-IL/dataset/trc/00464_00167.trc
DataRate	CameraRate	NumFrames	NumMarkers	Units	OrigDataRate	OrigDataStartFrame	OrigNumFrames
100.000000	100.000000	4	53	mm	100.000000	208	556
Frame#	Time	RPSI			LPSI			L3			STRN			T10			C7			CLAV			RBAK			LBAK			LSHO			LUPA			LAEL			LAOL			LWTS			LWPS			LFRA			LIFD			LHPS			LHTS			RSHO			RUPA			RAEL			RAOL			RWTS			RWPS			RFRA			RIFD			RHTS			RHPS			RBHD			LFHD			RFHD			LBHD			LHIP			RHIP			RASI			LASI			LKNE			LTHI			LANK			LTIP			LTOE			LMT1			LMT5			LHEE			RKNE			RTHI			RANK			RTIP			RTOE			RMT1			RMT5			RHEE			
		X1	Y1	Z1	X2	Y2	Z2	X3	Y3	Z3	X4	Y4	Z4	X5	Y5	Z5	X6	Y6	Z6	X7	Y7	Z7	X8	Y8	Z8	X9	Y9	Z9	X10	Y10	Z10	X11	Y11	Z11	X12	Y12	Z12	X13	Y13	Z13	X14	Y14	Z14	X15	Y15	Z15	X16	Y16	Z16	X17	Y17	Z17	X18	Y18	Z18	X19	Y19	Z19	X20	Y20	Z20	X21	Y21	Z21	X22	Y22	Z22	X23	Y23	Z23	X24	Y24	Z24	X25	Y25	Z25	X26	Y26	Z26	X27	Y27	Z27	X28	Y28	Z28	X29	Y29	Z29	X30	Y30	Z30	X31	Y31	Z31	X32	Y32	Z32	X33	Y33	Z33	X34	Y34	Z34	X35	Y35	Z35	X36	Y36	Z36	X37	Y37	Z37	X38	Y38	Z38	X39	Y39	Z39	X40	Y40	Z40	X41	Y41	Z41	X42	Y42	Z42	X43	Y43	Z43	X44	Y44	Z44	X45	Y45	Z45	X46	Y46	Z46	X47	Y47	Z47	X48	Y48	Z48	X49	Y49	Z49	X50	Y50	Z50	X51	Y51	Z51	X52	Y52	Z52	X53	Y53	Z53	

209	2.08	-1006.708435058594	923.5845947265625	-522.3298950195312	-1044.521850585938	929.1204833984375	-658.3346557617188	-1008.811889648438	1029.83544921875	-592.6138305664062	-723.666748046875	1202.894287109375	-673.8211669921875	-1008.566467285156	1153.821655273438	-603.7417602539062	-916.2484130859375	1415.427612304688	-616.2127075195312	-749.5054931640625	1318.774047851562	-669.4974975585938	-969.8314819335938	1302.628662109375	-511.2318115234375	-975.9456787109375	1371.859985351562	-703.5245971679688	-894.7357177734375	1385.233154296875	-806.9559326171875	-938.106689453125	1267.566528320312	-896.8851928710938	-949.96435546875	1051.2939453125	-929.4906005859375	-1016.289611816406	1049.052001953125	-849.6963500976562	-898.5237426757812	838.3655395507812	-899.6887817382812	-959.3765258789062	833.8380737304688	-945.3793334960938	-946.5739135742188	961.9417724609375	-941.3510131835938	-932.0696411132812	671.3497924804688	-910.2191162109375	-965.15478515625	755.98193359375	-950.6998901367188	-901.5445556640625	749.6517944335938	-915.567138671875	-821.6039428710938	1380.410522460938	-472.3958435058594	-837.4359741210938	1323.048095703125	-394.5511169433594	-873.3965454101562	1044.428588867188	-325.885498046875	-932.9755249023438	1039.57177734375	-358.2985229492188	-833.052001953125	818.91015625	-372.8028564453125	-889.5608520507812	823.283447265625	-304.4532775878906	-881.3580932617188	987.3439331054688	-312.8728637695312	-873.556396484375	667.356201171875	-355.6318359375	-842.9285888671875	720.6148681640625	-356.9599609375	-897.540771484375	735.077392578125	-304.8848876953125	-791.0275268554688	1606.81640625	-554.4003295898438	-674.337158203125	1595.293823242188	-724.6182250976562	-659.5847778320312	1595.40478515625	-594.5905151367188	-826.2684326171875	1614.730346679688	-728.3802490234375	-958.699462890625	823.35498046875	-807.5172729492188	-839.475830078125	827.748779296875	-425.3854370117188	-768.0221557617188	877.183837890625	-518.3082885742188	-838.145751953125	855.5081787109375	-766.7661743164062	-1010.261291503906	412.6632080078125	-737.976318359375	-962.4127197265625	558.7178955078125	-778.4058837890625	-1224.1513671875	49.77640151977539	-660.701416015625	-1075.933959960938	271.5364379882812	-725.7770385742188	-982.4660034179688	42.80551910400391	-640.8322143554688	-1049.753784179688	54.02854156494141	-600.344482421875	-1079.64404296875	40.77583694458008	-711.7256469726562	-1251.582275390625	68.82303619384766	-587.9808959960938	-718.6588134765625	452.2267150878906	-509.0873413085938	-768.5498657226562	703.654541015625	-440.5079040527344	-620.903076171875	33.96965026855469	-558.9398803710938	-671.0316772460938	323.2120361328125	-516.546142578125	-433.2639770507812	101.9561386108398	-641.4833374023438	-500.8889465332031	92.15817260742188	-668.3612670898438	-492.675048828125	58.58098220825195	-568.2245483398438	-692.3038940429688	21.95229530334473	-592.5525512695312	
210	2.09	-998.445068359375	922.46875	-523.4113159179688	-1036.121704101562	928.2607421875	-659.3997192382812	-1000.634399414062	1028.747314453125	-593.4727172851562	-715.2696533203125	1202.219482421875	-673.771728515625	-1000.306579589844	1152.901977539062	-604.0368041992188	-908.0166015625	1414.595092773438	-615.3812255859375	-741.2010498046875	1318.057739257812	-669.0696411132812	-961.63818359375	1301.33251953125	-510.8274230957031	-967.7532348632812	1371.315307617188	-702.8834838867188	-886.4840698242188	1384.973388671875	-806.2833862304688	-929.9749145507812	1267.48291015625	-896.3761596679688	-942.0344848632812	1051.55712890625	-930.041259765625	-1008.102905273438	1048.91064453125	-850.002197265625	-889.9788208007812	838.7611083984375	-901.7946166992188	-951.7797241210938	834.23486328125	-946.932373046875	-938.8172607421875	962.2858276367188	-942.3460693359375	-924.4119262695312	671.5986328125	-912.8267211914062	-957.677978515625	756.468017578125	-952.7163696289062	-893.8648681640625	749.8829345703125	-917.8133544921875	-813.3574829101562	1378.8955078125	-471.6921997070312	-829.172607421875	1321.099731445312	-394.1024475097656	-864.9682006835938	1042.244262695312	-326.4488525390625	-924.5546875	1037.442260742188	-358.861572265625	-824.3728637695312	817.0118408203125	-374.2530212402344	-880.8159790039062	821.0250244140625	-305.88525390625	-872.845703125	985.1173706054688	-313.6276245117188	-864.7622680664062	665.363037109375	-357.7261657714844	-834.2435302734375	718.5869750976562	-358.8874816894531	-888.7388305664062	732.8351440429688	-306.69140625	-783.1363525390625	1605.99560546875	-553.1622314453125	-665.9496459960938	1594.932373046875	-723.0610961914062	-651.5740356445312	1594.82763671875	-592.9859619140625	-817.9266357421875	1614.169555664062	-727.2138061523438	-950.3651123046875	822.8506469726562	-808.6627807617188	-830.9390869140625	827.1768798828125	-426.4259643554688	-759.6370239257812	876.7862548828125	-519.2799682617188	-829.6268920898438	854.8387451171875	-767.838623046875	-1004.681213378906	412.7059020996094	-739.52880859375	-955.5288696289062	558.6015014648438	-779.6701049804688	-1223.6689453125	52.39797592163086	-661.6134643554688	-1072.38720703125	272.4319763183594	-727.3156127929688	-982.3502807617188	42.68274688720703	-640.8385009765625	-1049.442138671875	54.49526977539062	-600.8855590820312	-1079.52587890625	40.55221557617188	-712.0252685546875	-1250.933959960938	72.93170166015625	-589.1929321289062	-711.2796020507812	451.3294067382812	-511.2832946777344	-759.8729858398438	703.0916137695312	-441.7741088867188	-620.2582397460938	34.06714630126953	-560.4440307617188	-664.8850708007812	321.6178283691406	-519.3577880859375	-428.5155639648438	92.48905944824219	-643.2455444335938	-497.0538330078125	86.11588287353516	-669.9487915039062	-490.6691284179688	54.16155624389648	-568.9546508789062	-691.919921875	23.30809593200684	-594.0405883789062	
211	2.1	-990.0270385742188	921.6774291992188	-524.5462646484375	-1027.48876953125	927.6248168945312	-660.5643310546875	-992.2451171875	1027.920532226562	-594.4066772460938	-706.68701171875	1201.9189453125	-673.5777587890625	-991.8819580078125	1152.293334960938	-604.3175048828125	-899.683349609375	1414.072387695312	-614.4994506835938	-732.7801513671875	1317.697387695312	-668.522216796875	-953.410400390625	1300.32861328125	-510.3818359375	-959.4592895507812	1371.085205078125	-702.1961059570312	-878.1113891601562	1385	-805.5599365234375	-921.7256469726562	1267.643310546875	-895.7783813476562	-933.963134765625	1052.084594726562	-930.5278930664062	-999.7639770507812	1049.001708984375	-850.225830078125	-881.2603149414062	839.4287719726562	-903.8305053710938	-943.9564819335938	834.917724609375	-948.4095458984375	-930.8948974609375	962.8924560546875	-943.2716674804688	-916.3945922851562	672.1412963867188	-915.4002075195312	-949.9036254882812	757.2384033203125	-954.6729125976562	-885.879150390625	750.4502563476562	-920.0284423828125	-805.0921630859375	1377.627563476562	-470.8689575195312	-820.8817749023438	1319.337890625	-393.5727844238281	-856.2608642578125	1040.225463867188	-327.00244140625	-915.8572998046875	1035.44140625	-359.4005737304688	-815.2940673828125	815.3114013671875	-375.7259216308594	-871.6394653320312	818.9287109375	-307.3173522949219	-864.0106811523438	983.0444946289062	-314.375732421875	-855.4595947265625	663.5498046875	-359.8321228027344	-825.0891723632812	716.7357788085938	-360.8479309082031	-879.4371948242188	730.7454833984375	-308.5001831054688	-775.1030883789062	1605.47607421875	-551.8013305664062	-657.3916625976562	1594.869873046875	-721.37060546875	-643.4224853515625	1594.53173828125	-591.2514038085938	-809.40185546875	1613.9404296875	-725.9353637695312	-941.69091796875	822.6083374023438	-809.8568725585938	-822.1244506835938	827.0684814453125	-427.4385375976562	-751.0553588867188	876.882080078125	-520.1806030273438	-820.8050537109375	854.5018920898438	-768.8440551757812	-998.7904052734375	413.0397644042969	-741.1890258789062	-948.3261108398438	558.7669067382812	-781.0357666015625	-1223.009521484375	55.40404891967773	-662.7463989257812	-1068.584106445312	273.6586303710938	-729.0135498046875	-982.2174072265625	42.55833053588867	-640.8737182617188	-1049.051025390625	55.04589080810547	-601.5249633789062	-1079.313354492188	40.32468795776367	-712.3510131835938	-1250.0986328125	77.54756164550781	-590.6786499023438	-703.5376586914062	450.9500427246094	-513.5205688476562	-750.8582153320312	702.9571533203125	-443.2320556640625	-619.7314453125	34.68054580688477	-561.78759765625	-658.3121948242188	320.5119934082031	-522.2467041015625	-424.2544250488281	83.01669311523438	-645.4124755859375	-493.6525268554688	80.20442962646484	-671.7318725585938	-488.7887878417969	50.4243278503418	-569.7206420898438	-691.6105346679688	24.87517166137695	-595.2636108398438	
212	2.11	-981.4576416015625	921.3078002929688	-525.722900390625	-1018.6328125	927.2735595703125	-661.8233032226562	-983.6233520507812	1027.419799804688	-595.4301147460938	-697.9345703125	1202.043579101562	-673.2474365234375	-983.30712890625	1152.054565429688	-604.6079711914062	-891.2649536132812	1413.909057617188	-613.5877685546875	-724.2559814453125	1317.748168945312	-667.8614501953125	-945.1641235351562	1299.674560546875	-509.9271850585938	-951.063232421875	1371.22509765625	-701.488525390625	-869.6168212890625	1385.376953125	-804.8051147460938	-913.3604736328125	1268.113159179688	-895.1189575195312	-925.7345581054688	1052.935180664062	-930.944091796875	-991.25537109375	1049.388671875	-850.3619384765625	-872.464111328125	840.392333984375	-905.7324829101562	-935.8944091796875	835.9364624023438	-949.7990112304688	-922.790283203125	963.8162231445312	-944.1199340820312	-908.05615234375	673.0249633789062	-917.9223022460938	-941.8367309570312	758.3428344726562	-956.54541015625	-877.6014404296875	751.399169921875	-922.1962890625	-796.8318481445312	1376.6708984375	-469.9474182128906	-812.5914306640625	1317.838134765625	-392.9828491210938	-847.2913208007812	1038.449340820312	-327.5671691894531	-906.8939208984375	1033.641235351562	-359.9454956054688	-805.81884765625	813.8783569335938	-377.2318420410156	-862.0408935546875	817.0737915039062	-308.7603759765625	-854.874267578125	981.1998291015625	-315.1347961425781	-845.6434326171875	661.9884643554688	-361.93115234375	-815.4517211914062	715.1452026367188	-362.8313903808594	-869.6390380859375	728.8870849609375	-310.3082580566406	-766.9318237304688	1605.302612304688	-550.3270263671875	-648.6649169921875	1595.129028320312	-719.547607421875	-635.1339111328125	1594.540161132812	-589.3906860351562	-800.6866455078125	1614.088989257812	-724.5511474609375	-932.6952514648438	822.64501953125	-811.07470703125	-813.0563354492188	827.4570922851562	-428.428466796875	-742.296875	877.4927978515625	-521.0077514648438	-811.7138671875	854.5263061523438	-769.7658081054688	-992.4765625	413.6376647949219	-742.9988403320312	-940.7374877929688	559.1947021484375	-782.5164794921875	-1222.12158203125	58.80715942382812	-664.098388671875	-1064.443725585938	275.1864318847656	-730.8904418945312	-982.0662841796875	42.43333053588867	-640.9434204101562	-1048.5673828125	55.68320846557617	-602.2623901367188	-1078.997436523438	40.09909820556641	-712.7000732421875	-1249.018432617188	82.69783782958984	-592.4466552734375	-695.4010009765625	451.11962890625	-515.8012084960938	-741.5358276367188	703.2715454101562	-444.8460998535156	-619.2192993164062	35.64347839355469	-562.9931640625	-651.3182983398438	319.9172973632812	-525.171875	-420.7133483886719	74.15717315673828	-647.9220581054688	-490.82275390625	74.74080657958984	-673.694580078125	-487.0679626464844	47.57708358764648	-570.5770263671875	-691.2745361328125	26.45697784423828	-596.2490844726562	
